<svg width="65" height="65" viewBox="0 0 65 65" fill="none" xmlns="http://www.w3.org/2000/svg">
<circle cx="32.5" cy="32.5" r="32.5" fill="#EAEFEF"/>
<ellipse cx="20.3125" cy="34.5312" rx="6.5" ry="6.09375" fill="#EAEFEF"/>
<path fill-rule="evenodd" clip-rule="evenodd" d="M18.5398 43.4079L21.3438 43.5549L24.5869 46.2679C24.5869 46.2679 25.2701 46.0214 25.9008 45.7105C26.5315 45.3995 26.9954 45.0805 26.9954 45.0805L26.7041 40.8233L28.2331 38.4689L31.8326 37.1527L31.841 37.0565C31.9281 36.0573 31.9632 35.655 31.9623 35.2528C31.9617 34.9817 31.9448 34.7106 31.9165 34.2568C31.9135 34.2085 31.9103 34.1581 31.9071 34.1055L28.5477 32.4608L27.2734 29.9598L27.9431 26.1284L27.9431 26.1284C27.2972 25.6857 26.9798 25.4682 26.6494 25.2728C26.3302 25.0841 25.9988 24.916 25.3472 24.5856L25.3472 24.5855L22.2276 26.683L19.4245 26.5361L16.3956 24.0023C15.2691 24.4921 15.0551 24.614 13.7946 25.3326L14.0638 29.2671L12.5347 31.6217L8.70679 33.0214C8.51146 34.2148 8.49344 34.5587 8.52158 35.819L12.2196 37.6295L13.4944 40.1314L12.7663 44.297C12.7663 44.297 13.2798 44.7145 13.8581 45.0793C14.4364 45.4441 15.0628 45.7456 15.0628 45.7456L18.5398 43.4079ZM25.0647 35.2907C25.2001 32.7056 23.2143 30.5001 20.6292 30.3646C18.0441 30.2292 15.8387 32.215 15.7032 34.8001C15.5677 37.3852 17.5535 39.5906 20.1386 39.7261C22.7237 39.8616 24.9292 37.8758 25.0647 35.2907Z" fill="white"/>
<path fill-rule="evenodd" clip-rule="evenodd" d="M18.5398 43.4079L21.3438 43.5549L24.5869 46.2679C24.5869 46.2679 25.2701 46.0214 25.9008 45.7105C26.5315 45.3995 26.9954 45.0805 26.9954 45.0805L26.7041 40.8233L28.2331 38.4689L31.8326 37.1527L31.841 37.0565C31.9281 36.0573 31.9632 35.655 31.9623 35.2528C31.9617 34.9817 31.9448 34.7106 31.9165 34.2568C31.9135 34.2085 31.9103 34.1581 31.9071 34.1055L28.5477 32.4608L27.2734 29.9598L27.9431 26.1284L27.9431 26.1284C27.2972 25.6857 26.9798 25.4682 26.6494 25.2728C26.3302 25.0841 25.9988 24.916 25.3472 24.5856L25.3472 24.5855L22.2276 26.683L19.4245 26.5361L16.3956 24.0023C15.2691 24.4921 15.0551 24.614 13.7946 25.3326L14.0638 29.2671L12.5347 31.6217L8.70679 33.0214C8.51146 34.2148 8.49344 34.5587 8.52158 35.819L12.2196 37.6295L13.4944 40.1314L12.7663 44.297C12.7663 44.297 13.2798 44.7145 13.8581 45.0793C14.4364 45.4441 15.0628 45.7456 15.0628 45.7456L18.5398 43.4079ZM25.0647 35.2907C25.2001 32.7056 23.2143 30.5001 20.6292 30.3646C18.0441 30.2292 15.8387 32.215 15.7032 34.8001C15.5677 37.3852 17.5535 39.5906 20.1386 39.7261C22.7237 39.8616 24.9292 37.8758 25.0647 35.2907Z" fill="#142FBF" fill-opacity="0.2"/>
<path d="M21.3438 43.5549L21.787 43.0252L21.6102 42.8773L21.38 42.8652L21.3438 43.5549ZM18.5398 43.4079L18.576 42.7183L18.3458 42.7062L18.1545 42.8348L18.5398 43.4079ZM24.5869 46.2679L24.1438 46.7976L24.4481 47.0522L24.8213 46.9175L24.5869 46.2679ZM25.9008 45.7105L25.5955 45.091L25.5955 45.091L25.9008 45.7105ZM26.9954 45.0805L27.3867 45.6496L27.7113 45.4264L27.6844 45.0334L26.9954 45.0805ZM26.7041 40.8233L26.1249 40.4472L25.9994 40.6405L26.0151 40.8705L26.7041 40.8233ZM28.2331 38.4689L27.9959 37.8203L27.7795 37.8995L27.6539 38.0928L28.2331 38.4689ZM31.8326 37.1527L32.0697 37.8013L32.4824 37.6504L32.5206 37.2127L31.8326 37.1527ZM31.841 37.0565L31.1529 36.9965L31.1529 36.9965L31.841 37.0565ZM31.9623 35.2528L32.6529 35.2513L32.6529 35.2513L31.9623 35.2528ZM31.9165 34.2568L31.2272 34.2998L31.2272 34.2998L31.9165 34.2568ZM31.9071 34.1055L32.5964 34.0627L32.5715 33.6618L32.2108 33.4852L31.9071 34.1055ZM28.5477 32.4608L27.9324 32.7743L28.037 32.9797L28.244 33.081L28.5477 32.4608ZM27.2734 29.9598L26.5931 29.8409L26.5534 30.068L26.6581 30.2733L27.2734 29.9598ZM27.9431 26.1284L28.6234 26.2473L28.7016 25.7999L28.3218 25.5509L27.9431 26.1284ZM27.9431 26.1284L27.5526 26.6982L27.5644 26.7059L27.9431 26.1284ZM26.6494 25.2728L26.2979 25.8673L26.2979 25.8673L26.6494 25.2728ZM25.3472 24.5856L25.6597 23.9695L25.6474 23.9636L25.3472 24.5856ZM25.3472 24.5855L25.6474 23.9635L25.2906 23.7914L24.9619 24.0124L25.3472 24.5855ZM22.2276 26.683L22.1915 27.3726L22.4216 27.3847L22.6129 27.2561L22.2276 26.683ZM19.4245 26.5361L18.9814 27.0658L19.1582 27.2137L19.3884 27.2257L19.4245 26.5361ZM16.3956 24.0023L16.8388 23.4726L16.5115 23.1988L16.1203 23.3689L16.3956 24.0023ZM13.7946 25.3326L13.4525 24.7327L13.0759 24.9473L13.1055 25.3798L13.7946 25.3326ZM14.0638 29.2671L14.643 29.6433L14.7685 29.45L14.7528 29.22L14.0638 29.2671ZM12.5347 31.6217L12.7719 32.2703L12.9884 32.1912L13.1139 31.9978L12.5347 31.6217ZM8.70679 33.0214L8.46961 32.3728L8.09045 32.5115L8.02524 32.9099L8.70679 33.0214ZM8.52158 35.819L7.83113 35.8345L7.84051 36.2546L8.2179 36.4393L8.52158 35.819ZM12.2196 37.6295L12.8349 37.316L12.7303 37.1106L12.5233 37.0093L12.2196 37.6295ZM13.4944 40.1314L14.1747 40.2503L14.2144 40.0233L14.1097 39.8179L13.4944 40.1314ZM12.7663 44.297L12.086 44.1781L12.0162 44.5772L12.3306 44.8329L12.7663 44.297ZM13.8581 45.0793L14.2265 44.4952L13.8581 45.0793ZM15.0628 45.7456L14.7633 46.3679L15.1198 46.5395L15.4482 46.3188L15.0628 45.7456ZM21.38 42.8652L18.576 42.7183L18.5037 44.0976L21.3077 44.2446L21.38 42.8652ZM25.03 45.7382L21.787 43.0252L20.9007 44.0846L24.1438 46.7976L25.03 45.7382ZM25.5955 45.091C25.3015 45.2359 24.9905 45.3681 24.7495 45.4651C24.6298 45.5133 24.5292 45.552 24.4591 45.5786C24.424 45.5918 24.3967 45.602 24.3784 45.6088C24.3693 45.6121 24.3625 45.6146 24.3581 45.6162C24.3559 45.617 24.3543 45.6176 24.3534 45.6179C24.3529 45.6181 24.3526 45.6182 24.3525 45.6183C24.3524 45.6183 24.3524 45.6183 24.3524 45.6183C24.3524 45.6183 24.3524 45.6183 24.3524 45.6183C24.3524 45.6183 24.3524 45.6183 24.3525 45.6183C24.3525 45.6183 24.3525 45.6183 24.5869 46.2679C24.8213 46.9175 24.8213 46.9175 24.8214 46.9175C24.8214 46.9175 24.8214 46.9175 24.8215 46.9175C24.8215 46.9174 24.8216 46.9174 24.8217 46.9174C24.8219 46.9173 24.8221 46.9172 24.8223 46.9171C24.8229 46.917 24.8235 46.9167 24.8244 46.9164C24.8261 46.9158 24.8284 46.9149 24.8314 46.9139C24.8373 46.9117 24.8458 46.9086 24.8566 46.9046C24.8781 46.8967 24.9091 46.8851 24.9479 46.8704C25.0256 46.841 25.1353 46.7988 25.2653 46.7464C25.5235 46.6425 25.8695 46.4959 26.2062 46.3299L25.5955 45.091ZM26.9954 45.0805C26.6041 44.5115 26.6041 44.5114 26.6042 44.5114C26.6042 44.5114 26.6042 44.5114 26.6043 44.5114C26.6043 44.5113 26.6044 44.5113 26.6044 44.5113C26.6045 44.5112 26.6045 44.5112 26.6046 44.5112C26.6046 44.5111 26.6045 44.5112 26.6044 44.5113C26.604 44.5115 26.6032 44.5121 26.602 44.5129C26.5996 44.5145 26.5954 44.5173 26.5897 44.5212C26.5781 44.529 26.56 44.541 26.536 44.5566C26.4879 44.588 26.4162 44.6338 26.3255 44.689C26.1433 44.7999 25.888 44.9468 25.5955 45.091L26.2062 46.3299C26.5444 46.1632 26.8363 45.9951 27.0438 45.8688C27.1479 45.8054 27.2316 45.752 27.2902 45.7138C27.3195 45.6947 27.3426 45.6794 27.3588 45.6685C27.367 45.663 27.3734 45.6587 27.3781 45.6555C27.3804 45.6539 27.3823 45.6526 27.3838 45.6516C27.3845 45.6511 27.3851 45.6507 27.3856 45.6504C27.3858 45.6502 27.3861 45.6501 27.3863 45.6499C27.3864 45.6499 27.3864 45.6498 27.3865 45.6498C27.3866 45.6497 27.3866 45.6497 27.3866 45.6497C27.3867 45.6496 27.3867 45.6496 26.9954 45.0805ZM26.0151 40.8705L26.3064 45.1277L27.6844 45.0334L27.3931 40.7762L26.0151 40.8705ZM27.6539 38.0928L26.1249 40.4472L27.2833 41.1995L28.8123 38.8451L27.6539 38.0928ZM31.5954 36.5041L27.9959 37.8203L28.4703 39.1175L32.0697 37.8013L31.5954 36.5041ZM31.1529 36.9965L31.1446 37.0927L32.5206 37.2127L32.529 37.1165L31.1529 36.9965ZM31.2717 35.2542C31.2725 35.6181 31.2413 35.9834 31.1529 36.9965L32.529 37.1165C32.6149 36.1312 32.6539 35.6919 32.6529 35.2513L31.2717 35.2542ZM31.2272 34.2998C31.2559 34.7601 31.2712 35.0083 31.2717 35.2542L32.6529 35.2513C32.6523 34.955 32.6337 34.661 32.6058 34.2138L31.2272 34.2998ZM31.2178 34.1482C31.2211 34.201 31.2242 34.2515 31.2272 34.2998L32.6058 34.2138C32.6028 34.1655 32.5996 34.1152 32.5964 34.0627L31.2178 34.1482ZM28.244 33.081L31.6034 34.7257L32.2108 33.4852L28.8514 31.8405L28.244 33.081ZM26.6581 30.2733L27.9324 32.7743L29.1631 32.1472L27.8888 29.6463L26.6581 30.2733ZM27.2628 26.0095L26.5931 29.8409L27.9537 30.0787L28.6234 26.2473L27.2628 26.0095ZM27.5644 26.7059L27.5644 26.7059L28.3218 25.5509L28.3218 25.5509L27.5644 26.7059ZM26.2979 25.8673C26.6039 26.0482 26.8995 26.2504 27.5527 26.698L28.3335 25.5587C27.6949 25.121 27.3557 24.8881 27.0009 24.6783L26.2979 25.8673ZM25.0349 25.2015C25.6937 25.5357 26.0022 25.6925 26.2979 25.8673L27.0009 24.6783C26.6581 24.4757 26.3038 24.2963 25.6596 23.9696L25.0349 25.2015ZM25.0471 25.2075L25.0471 25.2075L25.6474 23.9636L25.6474 23.9635L25.0471 25.2075ZM22.6129 27.2561L25.7326 25.1587L24.9619 24.0124L21.8423 26.1098L22.6129 27.2561ZM19.3884 27.2257L22.1915 27.3726L22.2637 25.9933L19.4606 25.8464L19.3884 27.2257ZM15.9525 24.532L18.9814 27.0658L19.8676 26.0063L16.8388 23.4726L15.9525 24.532ZM14.1366 25.9326C15.3864 25.2201 15.5764 25.1116 16.671 24.6356L16.1203 23.3689C14.9618 23.8726 14.7239 24.0079 13.4525 24.7327L14.1366 25.9326ZM14.7528 29.22L14.4836 25.2855L13.1055 25.3798L13.3747 29.3143L14.7528 29.22ZM13.1139 31.9978L14.643 29.6433L13.4846 28.891L11.9555 31.2456L13.1139 31.9978ZM8.94397 33.6701L12.7719 32.2703L12.2975 30.9731L8.46961 32.3728L8.94397 33.6701ZM9.21204 35.8036C9.18472 34.5807 9.20066 34.2796 9.38835 33.133L8.02524 32.9099C7.82226 34.1499 7.80215 34.5367 7.83113 35.8345L9.21204 35.8036ZM12.5233 37.0093L8.82526 35.1988L8.2179 36.4393L11.9159 38.2498L12.5233 37.0093ZM14.1097 39.8179L12.8349 37.316L11.6042 37.9431L12.879 40.445L14.1097 39.8179ZM13.4466 44.4159L14.1747 40.2503L12.814 40.0125L12.086 44.1781L13.4466 44.4159ZM14.2265 44.4952C13.9581 44.3258 13.7009 44.1418 13.5088 43.9982C13.4133 43.9269 13.3354 43.8666 13.2817 43.8245C13.255 43.8035 13.2343 43.7871 13.2207 43.7762C13.2139 43.7708 13.2089 43.7668 13.2057 43.7642C13.2042 43.7629 13.203 43.762 13.2024 43.7615C13.2021 43.7613 13.2019 43.7611 13.2018 43.761C13.2018 43.761 13.2018 43.761 13.2018 43.761C13.2018 43.761 13.2018 43.7611 13.2019 43.7611C13.2019 43.7611 13.2019 43.7611 13.2019 43.7611C13.2019 43.7611 13.202 43.7612 12.7663 44.297C12.3306 44.8329 12.3306 44.8329 12.3307 44.8329C12.3307 44.8329 12.3307 44.833 12.3307 44.833C12.3308 44.833 12.3309 44.8331 12.3309 44.8332C12.3311 44.8333 12.3313 44.8334 12.3315 44.8336C12.3319 44.8339 12.3325 44.8344 12.3331 44.8349C12.3345 44.836 12.3363 44.8375 12.3386 44.8394C12.3433 44.8431 12.3498 44.8484 12.3582 44.8551C12.3749 44.8685 12.399 44.8875 12.4294 44.9114C12.4901 44.959 12.5766 45.0259 12.6819 45.1046C12.8911 45.2609 13.1798 45.468 13.4896 45.6634L14.2265 44.4952ZM15.0628 45.7456C15.3624 45.1234 15.3624 45.1234 15.3624 45.1234C15.3624 45.1234 15.3625 45.1234 15.3625 45.1234C15.3625 45.1234 15.3625 45.1234 15.3625 45.1234C15.3625 45.1234 15.3625 45.1234 15.3625 45.1234C15.3623 45.1234 15.3621 45.1232 15.3617 45.123C15.3608 45.1226 15.3594 45.1219 15.3574 45.121C15.3535 45.1191 15.3473 45.116 15.339 45.112C15.3223 45.1038 15.2974 45.0915 15.2654 45.0754C15.2013 45.0433 15.1094 44.9965 15 44.9387C14.7797 44.8222 14.4953 44.6647 14.2265 44.4952L13.4896 45.6634C13.7991 45.8587 14.1171 46.0344 14.3546 46.1599C14.4741 46.223 14.5749 46.2744 14.6464 46.3102C14.6822 46.3282 14.7107 46.3422 14.7306 46.352C14.7405 46.3569 14.7483 46.3607 14.7538 46.3634C14.7566 46.3647 14.7588 46.3658 14.7604 46.3665C14.7611 46.3669 14.7618 46.3672 14.7623 46.3674C14.7625 46.3676 14.7627 46.3677 14.7629 46.3677C14.763 46.3678 14.763 46.3678 14.7631 46.3678C14.7631 46.3679 14.7632 46.3679 14.7632 46.3679C14.7632 46.3679 14.7633 46.3679 15.0628 45.7456ZM18.1545 42.8348L14.6775 45.1725L15.4482 46.3188L18.9252 43.9811L18.1545 42.8348ZM20.5931 31.0543C22.7973 31.1698 24.4905 33.0503 24.375 35.2545L25.7543 35.3268C25.9098 32.3608 23.6314 29.8304 20.6654 29.675L20.5931 31.0543ZM16.3929 34.8362C16.5084 32.632 18.3889 30.9388 20.5931 31.0543L20.6654 29.675C17.6994 29.5195 15.1689 31.7979 15.0135 34.7639L16.3929 34.8362ZM20.1748 39.0364C17.9706 38.9209 16.2773 37.0404 16.3929 34.8362L15.0135 34.7639C14.8581 37.7299 17.1365 40.2603 20.1025 40.4158L20.1748 39.0364ZM24.375 35.2545C24.2595 37.4587 22.379 39.152 20.1748 39.0364L20.1025 40.4158C23.0685 40.5712 25.5989 38.2928 25.7543 35.3268L24.375 35.2545Z" fill="#142FBF"/>
<ellipse cx="37.375" cy="20.7188" rx="6.5" ry="6.09375" fill="#EAEFEF"/>
<path fill-rule="evenodd" clip-rule="evenodd" d="M35.6023 29.5954L38.4063 29.7424L41.6494 32.4554C41.6494 32.4554 42.3326 32.2089 42.9633 31.898C43.594 31.587 44.0579 31.268 44.0579 31.268L43.7666 27.0108L45.2956 24.6564L48.8951 23.3402L48.9035 23.244C48.9906 22.2448 49.0257 21.8425 49.0248 21.4403C49.0242 21.1692 49.0073 20.8981 48.979 20.4443C48.976 20.396 48.9728 20.3456 48.9696 20.293L45.6102 18.6483L44.3359 16.1473L45.0056 12.3159L45.0056 12.3159C44.3597 11.8732 44.0423 11.6557 43.7119 11.4603C43.3927 11.2716 43.0613 11.1035 42.4097 10.7731L42.4097 10.773L39.2901 12.8705L36.487 12.7236L33.4581 10.1898C32.3316 10.6796 32.1176 10.8015 30.8571 11.5201L31.1263 15.4546L29.5972 17.8092L25.7693 19.2089C25.574 20.4023 25.5559 20.7462 25.5841 22.0065L29.2821 23.817L30.5569 26.3189L29.8288 30.4845C29.8288 30.4845 30.3423 30.902 30.9206 31.2668C31.4989 31.6316 32.1253 31.9331 32.1253 31.9331L35.6023 29.5954ZM42.1272 21.4782C42.2626 18.8931 40.2768 16.6876 37.6917 16.5521C35.1066 16.4167 32.9012 18.4025 32.7657 20.9876C32.6302 23.5727 34.616 25.7781 37.2011 25.9136C39.7862 26.0491 41.9917 24.0633 42.1272 21.4782Z" fill="white"/>
<path fill-rule="evenodd" clip-rule="evenodd" d="M35.6023 29.5954L38.4063 29.7424L41.6494 32.4554C41.6494 32.4554 42.3326 32.2089 42.9633 31.898C43.594 31.587 44.0579 31.268 44.0579 31.268L43.7666 27.0108L45.2956 24.6564L48.8951 23.3402L48.9035 23.244C48.9906 22.2448 49.0257 21.8425 49.0248 21.4403C49.0242 21.1692 49.0073 20.8981 48.979 20.4443C48.976 20.396 48.9728 20.3456 48.9696 20.293L45.6102 18.6483L44.3359 16.1473L45.0056 12.3159L45.0056 12.3159C44.3597 11.8732 44.0423 11.6557 43.7119 11.4603C43.3927 11.2716 43.0613 11.1035 42.4097 10.7731L42.4097 10.773L39.2901 12.8705L36.487 12.7236L33.4581 10.1898C32.3316 10.6796 32.1176 10.8015 30.8571 11.5201L31.1263 15.4546L29.5972 17.8092L25.7693 19.2089C25.574 20.4023 25.5559 20.7462 25.5841 22.0065L29.2821 23.817L30.5569 26.3189L29.8288 30.4845C29.8288 30.4845 30.3423 30.902 30.9206 31.2668C31.4989 31.6316 32.1253 31.9331 32.1253 31.9331L35.6023 29.5954ZM42.1272 21.4782C42.2626 18.8931 40.2768 16.6876 37.6917 16.5521C35.1066 16.4167 32.9012 18.4025 32.7657 20.9876C32.6302 23.5727 34.616 25.7781 37.2011 25.9136C39.7862 26.0491 41.9917 24.0633 42.1272 21.4782Z" fill="#142FBF" fill-opacity="0.2"/>
<path d="M38.4063 29.7424L38.8495 29.2127L38.6727 29.0648L38.4425 29.0527L38.4063 29.7424ZM35.6023 29.5954L35.6385 28.9058L35.4083 28.8937L35.217 29.0223L35.6023 29.5954ZM41.6494 32.4554L41.2063 32.9851L41.5106 33.2397L41.8838 33.105L41.6494 32.4554ZM42.9633 31.898L42.658 31.2785L42.658 31.2785L42.9633 31.898ZM44.0579 31.268L44.4492 31.8371L44.7738 31.6139L44.7469 31.2209L44.0579 31.268ZM43.7666 27.0108L43.1874 26.6347L43.0619 26.828L43.0776 27.058L43.7666 27.0108ZM45.2956 24.6564L45.0584 24.0078L44.842 24.087L44.7164 24.2803L45.2956 24.6564ZM48.8951 23.3402L49.1322 23.9888L49.5449 23.8379L49.5831 23.4002L48.8951 23.3402ZM48.9035 23.244L48.2154 23.184L48.2154 23.184L48.9035 23.244ZM49.0248 21.4403L49.7154 21.4388L49.7154 21.4388L49.0248 21.4403ZM48.979 20.4443L48.2897 20.4873L48.2897 20.4873L48.979 20.4443ZM48.9696 20.293L49.6589 20.2502L49.634 19.8493L49.2733 19.6727L48.9696 20.293ZM45.6102 18.6483L44.9949 18.9618L45.0995 19.1672L45.3065 19.2685L45.6102 18.6483ZM44.3359 16.1473L43.6556 16.0284L43.6159 16.2555L43.7206 16.4608L44.3359 16.1473ZM45.0056 12.3159L45.6859 12.4348L45.7641 11.9874L45.3843 11.7384L45.0056 12.3159ZM45.0056 12.3159L44.6151 12.8857L44.6269 12.8934L45.0056 12.3159ZM43.7119 11.4603L43.3604 12.0548L43.3604 12.0548L43.7119 11.4603ZM42.4097 10.7731L42.7222 10.157L42.7099 10.1511L42.4097 10.7731ZM42.4097 10.773L42.7099 10.151L42.3531 9.9789L42.0244 10.1999L42.4097 10.773ZM39.2901 12.8705L39.254 13.5601L39.4841 13.5722L39.6754 13.4436L39.2901 12.8705ZM36.487 12.7236L36.0439 13.2533L36.2207 13.4012L36.4509 13.4132L36.487 12.7236ZM33.4581 10.1898L33.9013 9.66005L33.574 9.38629L33.1828 9.55643L33.4581 10.1898ZM30.8571 11.5201L30.515 10.9202L30.1384 11.1348L30.168 11.5673L30.8571 11.5201ZM31.1263 15.4546L31.7055 15.8308L31.831 15.6375L31.8153 15.4075L31.1263 15.4546ZM29.5972 17.8092L29.8344 18.4578L30.0509 18.3787L30.1764 18.1853L29.5972 17.8092ZM25.7693 19.2089L25.5321 18.5603L25.153 18.699L25.0877 19.0974L25.7693 19.2089ZM25.5841 22.0065L24.8936 22.022L24.903 22.4421L25.2804 22.6268L25.5841 22.0065ZM29.2821 23.817L29.8974 23.5035L29.7928 23.2981L29.5858 23.1968L29.2821 23.817ZM30.5569 26.3189L31.2372 26.4378L31.2769 26.2108L31.1722 26.0054L30.5569 26.3189ZM29.8288 30.4845L29.1485 30.3656L29.0787 30.7647L29.3931 31.0204L29.8288 30.4845ZM30.9206 31.2668L31.289 30.6827L30.9206 31.2668ZM32.1253 31.9331L31.8258 32.5554L32.1823 32.727L32.5107 32.5063L32.1253 31.9331ZM38.4425 29.0527L35.6385 28.9058L35.5662 30.2851L38.3702 30.4321L38.4425 29.0527ZM42.0925 31.9257L38.8495 29.2127L37.9632 30.2721L41.2063 32.9851L42.0925 31.9257ZM42.658 31.2785C42.364 31.4234 42.053 31.5556 41.812 31.6526C41.6923 31.7008 41.5917 31.7395 41.5216 31.7661C41.4865 31.7793 41.4592 31.7895 41.4409 31.7963C41.4318 31.7996 41.425 31.8021 41.4206 31.8037C41.4184 31.8045 41.4168 31.8051 41.4159 31.8054C41.4154 31.8056 41.4151 31.8057 41.415 31.8058C41.4149 31.8058 41.4149 31.8058 41.4149 31.8058C41.4149 31.8058 41.4149 31.8058 41.4149 31.8058C41.4149 31.8058 41.4149 31.8058 41.415 31.8058C41.415 31.8058 41.415 31.8058 41.6494 32.4554C41.8838 33.105 41.8838 33.105 41.8839 33.105C41.8839 33.105 41.8839 33.105 41.884 33.105C41.884 33.1049 41.8841 33.1049 41.8842 33.1049C41.8844 33.1048 41.8846 33.1047 41.8848 33.1046C41.8854 33.1045 41.886 33.1042 41.8869 33.1039C41.8886 33.1033 41.8909 33.1024 41.8939 33.1014C41.8998 33.0992 41.9083 33.0961 41.9191 33.0921C41.9406 33.0842 41.9716 33.0726 42.0104 33.0579C42.0881 33.0285 42.1978 32.9863 42.3278 32.9339C42.586 32.83 42.932 32.6834 43.2687 32.5174L42.658 31.2785ZM44.0579 31.268C43.6666 30.699 43.6666 30.6989 43.6667 30.6989C43.6667 30.6989 43.6667 30.6989 43.6668 30.6989C43.6668 30.6988 43.6669 30.6988 43.6669 30.6988C43.667 30.6987 43.667 30.6987 43.6671 30.6987C43.6671 30.6986 43.667 30.6987 43.6669 30.6988C43.6665 30.699 43.6657 30.6996 43.6645 30.7004C43.6621 30.702 43.6579 30.7048 43.6522 30.7087C43.6406 30.7165 43.6225 30.7285 43.5985 30.7441C43.5504 30.7755 43.4787 30.8213 43.388 30.8765C43.2058 30.9874 42.9505 31.1343 42.658 31.2785L43.2687 32.5174C43.6069 32.3507 43.8988 32.1826 44.1063 32.0563C44.2104 31.9929 44.2941 31.9395 44.3527 31.9013C44.382 31.8822 44.4051 31.8669 44.4213 31.856C44.4295 31.8505 44.4359 31.8462 44.4406 31.843C44.4429 31.8414 44.4448 31.8401 44.4463 31.8391C44.447 31.8386 44.4476 31.8382 44.4481 31.8379C44.4483 31.8377 44.4486 31.8376 44.4488 31.8374C44.4489 31.8374 44.4489 31.8373 44.449 31.8373C44.4491 31.8372 44.4491 31.8372 44.4491 31.8372C44.4492 31.8371 44.4492 31.8371 44.0579 31.268ZM43.0776 27.058L43.3689 31.3152L44.7469 31.2209L44.4556 26.9637L43.0776 27.058ZM44.7164 24.2803L43.1874 26.6347L44.3458 27.387L45.8748 25.0326L44.7164 24.2803ZM48.6579 22.6916L45.0584 24.0078L45.5328 25.305L49.1322 23.9888L48.6579 22.6916ZM48.2154 23.184L48.2071 23.2802L49.5831 23.4002L49.5915 23.304L48.2154 23.184ZM48.3342 21.4417C48.335 21.8056 48.3038 22.1709 48.2154 23.184L49.5915 23.304C49.6774 22.3187 49.7164 21.8794 49.7154 21.4388L48.3342 21.4417ZM48.2897 20.4873C48.3184 20.9476 48.3337 21.1958 48.3342 21.4417L49.7154 21.4388C49.7148 21.1425 49.6962 20.8485 49.6683 20.4013L48.2897 20.4873ZM48.2803 20.3357C48.2836 20.3885 48.2867 20.439 48.2897 20.4873L49.6683 20.4013C49.6653 20.353 49.6621 20.3027 49.6589 20.2502L48.2803 20.3357ZM45.3065 19.2685L48.6659 20.9132L49.2733 19.6727L45.9139 18.028L45.3065 19.2685ZM43.7206 16.4608L44.9949 18.9618L46.2256 18.3347L44.9513 15.8338L43.7206 16.4608ZM44.3253 12.197L43.6556 16.0284L45.0162 16.2662L45.6859 12.4348L44.3253 12.197ZM44.6269 12.8934L44.6269 12.8934L45.3843 11.7384L45.3843 11.7384L44.6269 12.8934ZM43.3604 12.0548C43.6664 12.2357 43.962 12.4379 44.6152 12.8855L45.396 11.7462C44.7574 11.3085 44.4182 11.0756 44.0634 10.8658L43.3604 12.0548ZM42.0974 11.389C42.7562 11.7232 43.0647 11.88 43.3604 12.0548L44.0634 10.8658C43.7206 10.6632 43.3663 10.4838 42.7221 10.1571L42.0974 11.389ZM42.1096 11.395L42.1096 11.395L42.7099 10.1511L42.7099 10.151L42.1096 11.395ZM39.6754 13.4436L42.7951 11.3462L42.0244 10.1999L38.9048 12.2973L39.6754 13.4436ZM36.4509 13.4132L39.254 13.5601L39.3262 12.1808L36.5231 12.0339L36.4509 13.4132ZM33.015 10.7195L36.0439 13.2533L36.9301 12.1938L33.9013 9.66005L33.015 10.7195ZM31.1991 12.1201C32.4489 11.4076 32.6389 11.2991 33.7335 10.8231L33.1828 9.55643C32.0243 10.0601 31.7864 10.1954 30.515 10.9202L31.1991 12.1201ZM31.8153 15.4075L31.5461 11.473L30.168 11.5673L30.4372 15.5018L31.8153 15.4075ZM30.1764 18.1853L31.7055 15.8308L30.5471 15.0785L29.018 17.4331L30.1764 18.1853ZM26.0065 19.8576L29.8344 18.4578L29.36 17.1606L25.5321 18.5603L26.0065 19.8576ZM26.2745 21.9911C26.2472 20.7682 26.2632 20.4671 26.4508 19.3205L25.0877 19.0974C24.8848 20.3374 24.8646 20.7242 24.8936 22.022L26.2745 21.9911ZM29.5858 23.1968L25.8878 21.3863L25.2804 22.6268L28.9784 24.4373L29.5858 23.1968ZM31.1722 26.0054L29.8974 23.5035L28.6667 24.1306L29.9415 26.6325L31.1722 26.0054ZM30.5091 30.6034L31.2372 26.4378L29.8765 26.2L29.1485 30.3656L30.5091 30.6034ZM31.289 30.6827C31.0206 30.5133 30.7634 30.3293 30.5713 30.1857C30.4758 30.1144 30.3979 30.0541 30.3442 30.012C30.3175 29.991 30.2968 29.9746 30.2832 29.9637C30.2764 29.9583 30.2714 29.9543 30.2682 29.9517C30.2667 29.9504 30.2655 29.9495 30.2649 29.949C30.2646 29.9488 30.2644 29.9486 30.2643 29.9485C30.2643 29.9485 30.2643 29.9485 30.2643 29.9485C30.2643 29.9485 30.2643 29.9486 30.2644 29.9486C30.2644 29.9486 30.2644 29.9486 30.2644 29.9486C30.2644 29.9486 30.2645 29.9487 29.8288 30.4845C29.3931 31.0204 29.3931 31.0204 29.3932 31.0204C29.3932 31.0204 29.3932 31.0205 29.3932 31.0205C29.3933 31.0205 29.3934 31.0206 29.3934 31.0207C29.3936 31.0208 29.3938 31.0209 29.394 31.0211C29.3944 31.0214 29.395 31.0219 29.3956 31.0224C29.397 31.0235 29.3988 31.025 29.4011 31.0269C29.4058 31.0306 29.4123 31.0359 29.4207 31.0426C29.4374 31.056 29.4615 31.075 29.4919 31.0989C29.5526 31.1465 29.6391 31.2134 29.7444 31.2921C29.9536 31.4484 30.2423 31.6555 30.5521 31.8509L31.289 30.6827ZM32.1253 31.9331C32.4249 31.3109 32.4249 31.3109 32.4249 31.3109C32.4249 31.3109 32.425 31.3109 32.425 31.3109C32.425 31.3109 32.425 31.3109 32.425 31.3109C32.425 31.3109 32.425 31.3109 32.425 31.3109C32.4248 31.3109 32.4246 31.3107 32.4242 31.3105C32.4233 31.3101 32.4219 31.3094 32.4199 31.3085C32.416 31.3066 32.4098 31.3035 32.4015 31.2995C32.3848 31.2913 32.3599 31.279 32.3279 31.2629C32.2638 31.2308 32.1719 31.184 32.0625 31.1262C31.8422 31.0097 31.5578 30.8522 31.289 30.6827L30.5521 31.8509C30.8616 32.0462 31.1796 32.2219 31.4171 32.3474C31.5366 32.4105 31.6374 32.4619 31.7089 32.4977C31.7447 32.5157 31.7732 32.5297 31.7931 32.5395C31.803 32.5444 31.8108 32.5482 31.8163 32.5509C31.8191 32.5522 31.8213 32.5533 31.8229 32.554C31.8236 32.5544 31.8243 32.5547 31.8248 32.5549C31.825 32.5551 31.8252 32.5552 31.8254 32.5552C31.8255 32.5553 31.8255 32.5553 31.8256 32.5553C31.8256 32.5554 31.8257 32.5554 31.8257 32.5554C31.8257 32.5554 31.8258 32.5554 32.1253 31.9331ZM35.217 29.0223L31.74 31.36L32.5107 32.5063L35.9877 30.1686L35.217 29.0223ZM37.6556 17.2418C39.8598 17.3573 41.553 19.2378 41.4375 21.442L42.8168 21.5143C42.9723 18.5483 40.6939 16.0179 37.7279 15.8625L37.6556 17.2418ZM33.4554 21.0237C33.5709 18.8195 35.4514 17.1263 37.6556 17.2418L37.7279 15.8625C34.7619 15.707 32.2314 17.9854 32.076 20.9514L33.4554 21.0237ZM37.2373 25.2239C35.0331 25.1084 33.3398 23.2279 33.4554 21.0237L32.076 20.9514C31.9206 23.9174 34.199 26.4478 37.165 26.6033L37.2373 25.2239ZM41.4375 21.442C41.322 23.6462 39.4415 25.3395 37.2373 25.2239L37.165 26.6033C40.131 26.7587 42.6614 24.4803 42.8168 21.5143L41.4375 21.442Z" fill="#142FBF"/>
<g clip-path="url(#clip0_1632_408)">
<path d="M25.6208 33.8544C25.6208 31.5509 27.4882 29.6836 29.7917 29.6836L44.9584 29.6836C47.2618 29.6836 49.1292 31.5509 49.1292 33.8544V49.0211C49.1292 50.2775 48.1106 51.2961 46.8542 51.2961H27.8958C26.6394 51.2961 25.6208 50.2775 25.6208 49.0211V33.8544Z" fill="white"/>
<path d="M29.7917 46.5837V44.6878H33.5833V46.5837H29.7917ZM31.6875 35.2087C32.6947 35.2087 33.5833 36.0973 33.5833 37.1045C33.5833 38.1709 32.6947 39.0003 31.6875 39.0003C30.6211 39.0003 29.7917 38.1709 29.7917 37.1045C29.7917 36.0973 30.6211 35.2087 31.6875 35.2087ZM43.0625 35.2087C44.0697 35.2087 44.9583 36.0973 44.9583 37.1045C44.9583 38.1709 44.0697 39.0003 43.0625 39.0003C41.9961 39.0003 41.1667 38.1709 41.1667 37.1045C41.1667 36.0973 41.9961 35.2087 43.0625 35.2087ZM52.5417 35.2087C53.5488 35.2087 54.4375 36.0973 54.4375 37.1045V44.6878C54.4375 45.7542 53.5488 46.5837 52.5417 46.5837H50.6458V48.4795C50.6458 50.6123 48.9277 52.2712 46.8542 52.2712H27.8958C25.763 52.2712 24.1042 50.6123 24.1042 48.4795V46.5837H22.2083C21.1419 46.5837 20.3125 45.7542 20.3125 44.6878V37.1045C20.3125 36.0973 21.1419 35.2087 22.2083 35.2087H24.1042V33.3128C24.1042 30.1729 26.6517 27.6253 29.7917 27.6253H36.4271V22.8857C36.4271 22.4118 36.8418 21.9378 37.375 21.9378C37.849 21.9378 38.3229 22.4118 38.3229 22.8857V27.6253H44.9583C48.0983 27.6253 50.6458 30.1729 50.6458 33.3128V35.2087H52.5417ZM24.1042 44.6878V37.1045H22.2083V44.6878H24.1042ZM48.75 48.4795V33.3128C48.75 31.2393 47.0319 29.5212 44.9583 29.5212H29.7917C27.6589 29.5212 26 31.2393 26 33.3128V48.4795C26 49.5459 26.8294 50.3753 27.8958 50.3753H46.8542C47.8613 50.3753 48.75 49.5459 48.75 48.4795ZM52.5417 44.6878V37.1045H50.6458V44.6878H52.5417ZM41.1667 46.5837V44.6878H44.9583V46.5837H41.1667ZM35.4792 46.5837V44.6878H39.2708V46.5837H35.4792Z" fill="#142FBF"/>
<path d="M29.7917 46.5837H29.4667V46.9087H29.7917V46.5837ZM29.7917 44.6878V44.3628H29.4667V44.6878H29.7917ZM33.5833 44.6878H33.9083V44.3628H33.5833V44.6878ZM33.5833 46.5837V46.9087H33.9083V46.5837H33.5833ZM50.6458 46.5837V46.2587H50.3208V46.5837H50.6458ZM24.1042 46.5837H24.4292V46.2587H24.1042V46.5837ZM24.1042 35.2087V35.5337H24.4292V35.2087H24.1042ZM36.4271 27.6253V27.9503H36.7521V27.6253H36.4271ZM38.3229 27.6253H37.9979V27.9503H38.3229V27.6253ZM50.6458 35.2087H50.3208V35.5337H50.6458V35.2087ZM24.1042 44.6878V45.0128H24.4292V44.6878H24.1042ZM24.1042 37.1045H24.4292V36.7795H24.1042V37.1045ZM22.2083 37.1045V36.7795H21.8833V37.1045H22.2083ZM22.2083 44.6878H21.8833V45.0128H22.2083V44.6878ZM52.5417 44.6878V45.0128H52.8667V44.6878H52.5417ZM52.5417 37.1045H52.8667V36.7795H52.5417V37.1045ZM50.6458 37.1045V36.7795H50.3208V37.1045H50.6458ZM50.6458 44.6878H50.3208V45.0128H50.6458V44.6878ZM41.1667 46.5837H40.8417V46.9087H41.1667V46.5837ZM41.1667 44.6878V44.3628H40.8417V44.6878H41.1667ZM44.9583 44.6878H45.2833V44.3628H44.9583V44.6878ZM44.9583 46.5837V46.9087H45.2833V46.5837H44.9583ZM35.4792 46.5837H35.1542V46.9087H35.4792V46.5837ZM35.4792 44.6878V44.3628H35.1542V44.6878H35.4792ZM39.2708 44.6878H39.5958V44.3628H39.2708V44.6878ZM39.2708 46.5837V46.9087H39.5958V46.5837H39.2708ZM30.1167 46.5837V44.6878H29.4667V46.5837H30.1167ZM29.7917 45.0128H33.5833V44.3628H29.7917V45.0128ZM33.2583 44.6878V46.5837H33.9083V44.6878H33.2583ZM33.5833 46.2587H29.7917V46.9087H33.5833V46.2587ZM31.6875 35.5337C32.5152 35.5337 33.2583 36.2768 33.2583 37.1045H33.9083C33.9083 35.9178 32.8742 34.8837 31.6875 34.8837V35.5337ZM33.2583 37.1045C33.2583 37.9849 32.5218 38.6753 31.6875 38.6753V39.3253C32.8675 39.3253 33.9083 38.3569 33.9083 37.1045H33.2583ZM31.6875 38.6753C30.8006 38.6753 30.1167 37.9914 30.1167 37.1045H29.4667C29.4667 38.3504 30.4416 39.3253 31.6875 39.3253V38.6753ZM30.1167 37.1045C30.1167 36.2702 30.8071 35.5337 31.6875 35.5337V34.8837C30.435 34.8837 29.4667 35.9245 29.4667 37.1045H30.1167ZM43.0625 35.5337C43.8902 35.5337 44.6333 36.2768 44.6333 37.1045H45.2833C45.2833 35.9178 44.2492 34.8837 43.0625 34.8837V35.5337ZM44.6333 37.1045C44.6333 37.9849 43.8968 38.6753 43.0625 38.6753V39.3253C44.2425 39.3253 45.2833 38.3569 45.2833 37.1045H44.6333ZM43.0625 38.6753C42.1756 38.6753 41.4917 37.9914 41.4917 37.1045H40.8417C40.8417 38.3504 41.8166 39.3253 43.0625 39.3253V38.6753ZM41.4917 37.1045C41.4917 36.2702 42.1821 35.5337 43.0625 35.5337V34.8837C41.81 34.8837 40.8417 35.9245 40.8417 37.1045H41.4917ZM52.5417 35.5337C53.3693 35.5337 54.1125 36.2768 54.1125 37.1045H54.7625C54.7625 35.9178 53.7283 34.8837 52.5417 34.8837V35.5337ZM54.1125 37.1045V44.6878H54.7625V37.1045H54.1125ZM54.1125 44.6878C54.1125 45.5682 53.376 46.2587 52.5417 46.2587V46.9087C53.7217 46.9087 54.7625 45.9403 54.7625 44.6878H54.1125ZM52.5417 46.2587H50.6458V46.9087H52.5417V46.2587ZM50.3208 46.5837V48.4795H50.9708V46.5837H50.3208ZM50.3208 48.4795C50.3208 50.4295 48.7516 51.9462 46.8542 51.9462V52.5962C49.1039 52.5962 50.9708 50.7951 50.9708 48.4795H50.3208ZM46.8542 51.9462H27.8958V52.5962H46.8542V51.9462ZM27.8958 51.9462C25.9425 51.9462 24.4292 50.4328 24.4292 48.4795H23.7792C23.7792 50.7918 25.5835 52.5962 27.8958 52.5962V51.9462ZM24.4292 48.4795V46.5837H23.7792V48.4795H24.4292ZM24.1042 46.2587H22.2083V46.9087H24.1042V46.2587ZM22.2083 46.2587C21.3214 46.2587 20.6375 45.5747 20.6375 44.6878H19.9875C19.9875 45.9337 20.9624 46.9087 22.2083 46.9087V46.2587ZM20.6375 44.6878V37.1045H19.9875V44.6878H20.6375ZM20.6375 37.1045C20.6375 36.2702 21.328 35.5337 22.2083 35.5337V34.8837C20.9559 34.8837 19.9875 35.9245 19.9875 37.1045H20.6375ZM22.2083 35.5337H24.1042V34.8837H22.2083V35.5337ZM24.4292 35.2087V33.3128H23.7792V35.2087H24.4292ZM24.4292 33.3128C24.4292 30.3523 26.8312 27.9503 29.7917 27.9503V27.3003C26.4722 27.3003 23.7792 29.9934 23.7792 33.3128H24.4292ZM29.7917 27.9503H36.4271V27.3003H29.7917V27.9503ZM36.7521 27.6253V22.8857H36.1021V27.6253H36.7521ZM36.7521 22.8857C36.7521 22.5781 37.0342 22.2628 37.375 22.2628V21.6128C36.6494 21.6128 36.1021 22.2455 36.1021 22.8857H36.7521ZM37.375 22.2628C37.5063 22.2628 37.6648 22.3317 37.7969 22.4639C37.929 22.596 37.9979 22.7545 37.9979 22.8857H38.6479C38.6479 22.5431 38.4798 22.2276 38.2565 22.0042C38.0332 21.7809 37.7177 21.6128 37.375 21.6128V22.2628ZM37.9979 22.8857V27.6253H38.6479V22.8857H37.9979ZM38.3229 27.9503H44.9583V27.3003H38.3229V27.9503ZM44.9583 27.9503C47.9188 27.9503 50.3208 30.3523 50.3208 33.3128H50.9708C50.9708 29.9934 48.2778 27.3003 44.9583 27.3003V27.9503ZM50.3208 33.3128V35.2087H50.9708V33.3128H50.3208ZM50.6458 35.5337H52.5417V34.8837H50.6458V35.5337ZM24.4292 44.6878V37.1045H23.7792V44.6878H24.4292ZM24.1042 36.7795H22.2083V37.4295H24.1042V36.7795ZM21.8833 37.1045V44.6878H22.5333V37.1045H21.8833ZM22.2083 45.0128H24.1042V44.3628H22.2083V45.0128ZM49.075 48.4795V33.3128H48.425V48.4795H49.075ZM49.075 33.3128C49.075 31.0598 47.2114 29.1962 44.9583 29.1962V29.8462C46.8524 29.8462 48.425 31.4188 48.425 33.3128H49.075ZM44.9583 29.1962H29.7917V29.8462H44.9583V29.1962ZM29.7917 29.1962C27.4761 29.1962 25.675 31.0631 25.675 33.3128H26.325C26.325 31.4154 27.8417 29.8462 29.7917 29.8462V29.1962ZM25.675 33.3128V48.4795H26.325V33.3128H25.675ZM25.675 48.4795C25.675 49.7254 26.6499 50.7003 27.8958 50.7003V50.0503C27.0089 50.0503 26.325 49.3664 26.325 48.4795H25.675ZM27.8958 50.7003H46.8542V50.0503H27.8958V50.7003ZM46.8542 50.7003C48.0342 50.7003 49.075 49.7319 49.075 48.4795H48.425C48.425 49.3599 47.6885 50.0503 46.8542 50.0503V50.7003ZM52.8667 44.6878V37.1045H52.2167V44.6878H52.8667ZM52.5417 36.7795H50.6458V37.4295H52.5417V36.7795ZM50.3208 37.1045V44.6878H50.9708V37.1045H50.3208ZM50.6458 45.0128H52.5417V44.3628H50.6458V45.0128ZM41.4917 46.5837V44.6878H40.8417V46.5837H41.4917ZM41.1667 45.0128H44.9583V44.3628H41.1667V45.0128ZM44.6333 44.6878V46.5837H45.2833V44.6878H44.6333ZM44.9583 46.2587H41.1667V46.9087H44.9583V46.2587ZM35.8042 46.5837V44.6878H35.1542V46.5837H35.8042ZM35.4792 45.0128H39.2708V44.3628H35.4792V45.0128ZM38.9458 44.6878V46.5837H39.5958V44.6878H38.9458ZM39.2708 46.2587H35.4792V46.9087H39.2708V46.2587Z" fill="#EAEFEF"/>
<path d="M25.6208 33.8544C25.6208 31.5509 27.4882 29.6836 29.7917 29.6836L44.9584 29.6836C47.2618 29.6836 49.1292 31.5509 49.1292 33.8544V49.3191C49.1292 50.5756 48.1106 51.5941 46.8542 51.5941H27.8958C26.6394 51.5941 25.6208 50.5756 25.6208 49.3191V33.8544Z" fill="#BDDE9C" style="mix-blend-mode:darken"/>
<rect x="21.9375" y="38.188" width="2.4375" height="7.3125" fill="#EAEFEF"/>
</g>
<defs>
<clipPath id="clip0_1632_408">
<rect width="34.125" height="30.3333" fill="white" transform="translate(20.3125 22.4795)"/>
</clipPath>
</defs>
</svg>