<svg width="58" height="54" viewBox="0 0 58 54" fill="none" xmlns="http://www.w3.org/2000/svg">
<ellipse cx="16.1807" cy="31.1667" rx="7.96557" ry="7.46772" fill="#EAEFEF"/>
<path fill-rule="evenodd" clip-rule="evenodd" d="M14.0083 42.0442L17.4446 42.2243L21.4189 45.549C21.4189 45.549 22.2562 45.2469 23.0291 44.8659C23.802 44.4848 24.3704 44.0939 24.3704 44.0939L24.0135 38.8771L25.8875 35.9915L30.2982 34.3786L30.3085 34.2605C30.4153 33.0361 30.4583 32.5432 30.4572 32.0503C30.4565 31.718 30.4358 31.3859 30.4011 30.8298C30.3974 30.7706 30.3936 30.7088 30.3895 30.6443L26.2729 28.6288L24.7112 25.5637L25.5318 20.8686L25.5318 20.8686C23.9756 19.8021 23.9756 19.8021 22.3506 18.9779L18.5276 21.5483L15.0925 21.3682L11.3807 18.2631C10.0002 18.8634 9.73792 19.0128 8.19315 19.8934L8.52308 24.7153L6.6495 27.6004L1.95825 29.3158C1.71887 30.7782 1.69678 31.1997 1.73128 32.7442L6.26326 34.963L7.82531 38.0287L6.93303 43.1337C6.93303 43.1337 7.56234 43.6454 8.27101 44.0924C8.97968 44.5394 9.74738 44.909 9.74738 44.909L14.0083 42.0442ZM22.0044 32.0968C22.1704 28.9289 19.7369 26.2261 16.5689 26.0601C13.4009 25.8941 10.6982 28.3276 10.5322 31.4956C10.3662 34.6636 12.7997 37.3663 15.9677 37.5323C19.1356 37.6984 21.8384 35.2648 22.0044 32.0968Z" fill="white"/>
<path fill-rule="evenodd" clip-rule="evenodd" d="M14.0083 42.0442L17.4446 42.2243L21.4189 45.549C21.4189 45.549 22.2562 45.2469 23.0291 44.8659C23.802 44.4848 24.3704 44.0939 24.3704 44.0939L24.0135 38.8771L25.8875 35.9915L30.2982 34.3786L30.3085 34.2605C30.4153 33.0361 30.4583 32.5432 30.4572 32.0503C30.4565 31.718 30.4358 31.3859 30.4011 30.8298C30.3974 30.7706 30.3936 30.7088 30.3895 30.6443L26.2729 28.6288L24.7112 25.5637L25.5318 20.8686L25.5318 20.8686C23.9756 19.8021 23.9756 19.8021 22.3506 18.9779L18.5276 21.5483L15.0925 21.3682L11.3807 18.2631C10.0002 18.8634 9.73792 19.0128 8.19315 19.8934L8.52308 24.7153L6.6495 27.6004L1.95825 29.3158C1.71887 30.7782 1.69678 31.1997 1.73128 32.7442L6.26326 34.963L7.82531 38.0287L6.93303 43.1337C6.93303 43.1337 7.56234 43.6454 8.27101 44.0924C8.97968 44.5394 9.74738 44.909 9.74738 44.909L14.0083 42.0442ZM22.0044 32.0968C22.1704 28.9289 19.7369 26.2261 16.5689 26.0601C13.4009 25.8941 10.6982 28.3276 10.5322 31.4956C10.3662 34.6636 12.7997 37.3663 15.9677 37.5323C19.1356 37.6984 21.8384 35.2648 22.0044 32.0968Z" fill="#142FBF" fill-opacity="0.2"/>
<path d="M17.4446 42.2243L17.9877 41.5752L17.771 41.3939L17.4889 41.3791L17.4446 42.2243ZM14.0083 42.0442L14.0526 41.1991L13.7705 41.1843L13.5361 41.3419L14.0083 42.0442ZM21.4189 45.549L20.8758 46.1981L21.2488 46.5101L21.7061 46.3451L21.4189 45.549ZM24.3704 44.0939L24.85 44.7913L25.2478 44.5178L25.2148 44.0362L24.3704 44.0939ZM24.0135 38.8771L23.3037 38.4162L23.1498 38.6531L23.1691 38.9349L24.0135 38.8771ZM25.8875 35.9915L25.5968 35.1966L25.3315 35.2936L25.1777 35.5305L25.8875 35.9915ZM30.2982 34.3786L30.5889 35.1735L31.0946 34.9886L31.1414 34.4521L30.2982 34.3786ZM30.3085 34.2605L31.1517 34.334L30.3085 34.2605ZM30.4572 32.0503L31.3036 32.0484L31.3036 32.0484L30.4572 32.0503ZM30.4011 30.8298L31.2458 30.7771L31.2458 30.7771L30.4011 30.8298ZM30.3895 30.6443L31.2343 30.5919L31.2038 30.1006L30.7617 29.8841L30.3895 30.6443ZM26.2729 28.6288L25.5188 29.0131L25.6471 29.2648L25.9008 29.389L26.2729 28.6288ZM24.7112 25.5637L23.8775 25.418L23.8288 25.6962L23.9571 25.9479L24.7112 25.5637ZM25.5318 20.8686L26.3655 21.0143L26.4655 20.442L25.9674 20.143L25.5318 20.8686ZM25.5318 20.8686L25.0533 21.5667L25.0743 21.5811L25.0961 21.5942L25.5318 20.8686ZM22.3506 18.9779L22.7335 18.2231L22.2905 17.9984L21.8784 18.2755L22.3506 18.9779ZM18.5276 21.5483L18.4833 22.3934L18.7654 22.4082L18.9998 22.2506L18.5276 21.5483ZM15.0925 21.3682L14.5495 22.0174L14.7662 22.1986L15.0482 22.2134L15.0925 21.3682ZM11.3807 18.2631L11.9238 17.614L11.5227 17.2785L11.0432 17.487L11.3807 18.2631ZM8.19315 19.8934L7.774 19.1582L7.31253 19.4213L7.34879 19.9512L8.19315 19.8934ZM8.52308 24.7153L9.23288 25.1763L9.38673 24.9394L9.36745 24.6576L8.52308 24.7153ZM6.6495 27.6004L6.94016 28.3953L7.20545 28.2983L7.3593 28.0614L6.6495 27.6004ZM1.95825 29.3158L1.66759 28.521L1.20294 28.6909L1.12302 29.1791L1.95825 29.3158ZM1.73128 32.7442L0.885146 32.7631L0.896643 33.2779L1.35913 33.5044L1.73128 32.7442ZM6.26326 34.963L7.01736 34.5788L6.88912 34.3271L6.63541 34.2029L6.26326 34.963ZM7.82531 38.0287L8.65901 38.1744L8.70765 37.8962L8.5794 37.6445L7.82531 38.0287ZM6.93303 43.1337L6.09933 42.988L6.01384 43.4772L6.39911 43.7904L6.93303 43.1337ZM9.74738 44.909L9.38029 45.6716L9.8172 45.8819L10.2196 45.6114L9.74738 44.909ZM17.4889 41.3791L14.0526 41.1991L13.964 42.8894L17.4003 43.0695L17.4889 41.3791ZM21.9619 44.8998L17.9877 41.5752L16.9016 42.8735L20.8758 46.1981L21.9619 44.8998ZM22.6548 44.1068C22.2946 44.2843 21.9135 44.4463 21.6181 44.5652C21.4714 44.6242 21.3482 44.6717 21.2622 44.7043C21.2193 44.7205 21.1858 44.733 21.1634 44.7412C21.1522 44.7454 21.1438 44.7484 21.1385 44.7504C21.1358 44.7514 21.1338 44.7521 21.1327 44.7525C21.1321 44.7527 21.1317 44.7528 21.1316 44.7529C21.1315 44.7529 21.1314 44.7529 21.1315 44.7529C21.1315 44.7529 21.1315 44.7529 21.1315 44.7529C21.1315 44.7529 21.1316 44.7529 21.1316 44.7529C21.1316 44.7529 21.1316 44.7529 21.4189 45.549C21.7061 46.3451 21.7062 46.3451 21.7062 46.3451C21.7062 46.3451 21.7063 46.345 21.7063 46.345C21.7064 46.345 21.7065 46.345 21.7066 46.3449C21.7068 46.3448 21.7071 46.3447 21.7074 46.3446C21.708 46.3444 21.7089 46.3441 21.7099 46.3437C21.712 46.343 21.7148 46.3419 21.7185 46.3406C21.7258 46.338 21.7361 46.3342 21.7493 46.3293C21.7758 46.3195 21.8137 46.3054 21.8613 46.2874C21.9565 46.2514 22.0909 46.1996 22.2502 46.1354C22.5667 46.008 22.9906 45.8284 23.4033 45.625L22.6548 44.1068ZM24.3704 44.0939C23.8909 43.3966 23.891 43.3965 23.891 43.3965C23.891 43.3965 23.8911 43.3964 23.8911 43.3964C23.8912 43.3964 23.8912 43.3963 23.8913 43.3963C23.8914 43.3962 23.8914 43.3962 23.8915 43.3962C23.8915 43.3961 23.8914 43.3962 23.8912 43.3963C23.8908 43.3966 23.8898 43.3973 23.8883 43.3983C23.8854 43.4003 23.8803 43.4038 23.8732 43.4085C23.8591 43.418 23.8369 43.4327 23.8075 43.4519C23.7485 43.4903 23.6606 43.5464 23.5495 43.6141C23.3262 43.75 23.0133 43.93 22.6548 44.1068L23.4033 45.625C23.8177 45.4207 24.1755 45.2147 24.4297 45.0599C24.5573 44.9822 24.6598 44.9168 24.7316 44.87C24.7676 44.8466 24.7959 44.8278 24.8158 44.8144C24.8258 44.8078 24.8337 44.8024 24.8394 44.7985C24.8423 44.7966 24.8446 44.795 24.8464 44.7938C24.8472 44.7932 24.848 44.7927 24.8486 44.7923C24.8489 44.7921 24.8492 44.7919 24.8494 44.7917C24.8495 44.7916 24.8496 44.7916 24.8497 44.7915C24.8498 44.7915 24.8498 44.7914 24.8499 44.7914C24.8499 44.7913 24.85 44.7913 24.3704 44.0939ZM23.1691 38.9349L23.5261 44.1517L25.2148 44.0362L24.8579 38.8194L23.1691 38.9349ZM25.1777 35.5305L23.3037 38.4162L24.7233 39.3381L26.5973 36.4524L25.1777 35.5305ZM30.0076 33.5837L25.5968 35.1966L26.1781 36.7863L30.5889 35.1735L30.0076 33.5837ZM29.4654 34.187L29.4551 34.3051L31.1414 34.4521L31.1517 34.334L29.4654 34.187ZM29.6109 32.0521C29.6118 32.498 29.5736 32.9456 29.4654 34.187L31.1517 34.334C31.2569 33.1267 31.3047 32.5883 31.3036 32.0484L29.6109 32.0521ZM29.5564 30.8825C29.5916 31.4466 29.6102 31.7507 29.6109 32.0521L31.3036 32.0484C31.3028 31.6854 31.28 31.3251 31.2458 30.7771L29.5564 30.8825ZM29.5448 30.6967C29.5488 30.7614 29.5527 30.8233 29.5564 30.8825L31.2458 30.7771C31.2421 30.7179 31.2383 30.6563 31.2343 30.5919L29.5448 30.6967ZM25.9008 29.389L30.0174 31.4044L30.7617 29.8841L26.6451 27.8687L25.9008 29.389ZM23.9571 25.9479L25.5188 29.0131L27.027 28.2446L25.4653 25.1795L23.9571 25.9479ZM24.6981 20.7229L23.8775 25.418L25.5449 25.7094L26.3655 21.0143L24.6981 20.7229ZM25.0961 21.5942L25.0962 21.5942L25.9674 20.143L25.9674 20.143L25.0961 21.5942ZM21.9678 19.7327C23.5586 20.5395 23.5267 20.5204 25.0533 21.5667L26.0102 20.1705C24.4246 19.0837 24.3927 19.0646 22.7335 18.2231L21.9678 19.7327ZM18.9998 22.2506L22.8228 19.6802L21.8784 18.2755L18.0554 20.8459L18.9998 22.2506ZM15.0482 22.2134L18.4833 22.3934L18.5719 20.7031L15.1368 20.523L15.0482 22.2134ZM10.8377 18.9123L14.5495 22.0174L15.6356 20.7191L11.9238 17.614L10.8377 18.9123ZM8.61231 20.6287C10.1439 19.7556 10.3768 19.6225 11.7182 19.0392L11.0432 17.487C9.62362 18.1042 9.33199 18.27 7.774 19.1582L8.61231 20.6287ZM9.36745 24.6576L9.03752 19.8357L7.34879 19.9512L7.67872 24.7731L9.36745 24.6576ZM7.3593 28.0614L9.23288 25.1763L7.81328 24.2544L5.9397 27.1395L7.3593 28.0614ZM2.2489 30.1107L6.94016 28.3953L6.35884 26.8055L1.66759 28.521L2.2489 30.1107ZM2.57741 32.7253C2.54394 31.2266 2.56347 30.8577 2.79347 29.4526L1.12302 29.1791C0.874274 30.6988 0.849629 31.1727 0.885146 32.7631L2.57741 32.7253ZM6.63541 34.2029L2.10343 31.9841L1.35913 33.5044L5.89111 35.7232L6.63541 34.2029ZM8.5794 37.6445L7.01736 34.5788L5.50917 35.3473L7.07121 38.4129L8.5794 37.6445ZM7.76673 43.2795L8.65901 38.1744L6.99161 37.883L6.09933 42.988L7.76673 43.2795ZM8.72255 43.3766C8.39355 43.1691 8.07838 42.9435 7.84295 42.7675C7.72599 42.6801 7.63043 42.6062 7.56473 42.5547C7.53191 42.529 7.50663 42.5089 7.48996 42.4956C7.48163 42.4889 7.47546 42.4839 7.47157 42.4808C7.46963 42.4792 7.46827 42.4781 7.46749 42.4775C7.4671 42.4772 7.46686 42.477 7.46677 42.4769C7.46673 42.4769 7.46672 42.4769 7.46675 42.4769C7.46677 42.4769 7.46679 42.4769 7.46682 42.477C7.46684 42.477 7.46687 42.477 7.46688 42.477C7.46692 42.477 7.46695 42.4771 6.93303 43.1337C6.39911 43.7904 6.39915 43.7904 6.3992 43.7905C6.39921 43.7905 6.39926 43.7905 6.3993 43.7906C6.39937 43.7906 6.39945 43.7907 6.39954 43.7908C6.39973 43.7909 6.39995 43.7911 6.40021 43.7913C6.40073 43.7917 6.4014 43.7923 6.40223 43.7929C6.40387 43.7943 6.40613 43.7961 6.40897 43.7984C6.41465 43.803 6.42269 43.8094 6.43295 43.8176C6.45347 43.834 6.48289 43.8574 6.52014 43.8866C6.59458 43.945 6.70064 44.027 6.82959 44.1234C7.08598 44.315 7.4398 44.5688 7.81947 44.8083L8.72255 43.3766ZM9.74738 44.909C10.1145 44.1464 10.1145 44.1464 10.1145 44.1464C10.1145 44.1464 10.1146 44.1465 10.1146 44.1465C10.1146 44.1465 10.1146 44.1465 10.1147 44.1465C10.1147 44.1465 10.1147 44.1465 10.1146 44.1465C10.1144 44.1464 10.1141 44.1462 10.1136 44.146C10.1126 44.1455 10.1108 44.1447 10.1084 44.1435C10.1036 44.1411 10.096 44.1374 10.0858 44.1324C10.0654 44.1224 10.0348 44.1073 9.99563 44.0877C9.91713 44.0483 9.8045 43.991 9.67044 43.9201C9.40039 43.7774 9.0519 43.5844 8.72255 43.3766L7.81947 44.8083C8.19879 45.0475 8.58848 45.2628 8.87945 45.4166C9.0259 45.494 9.14949 45.557 9.23708 45.6009C9.28091 45.6228 9.31584 45.6401 9.34023 45.6521C9.35243 45.6581 9.362 45.6627 9.36874 45.666C9.37212 45.6676 9.37478 45.6689 9.37671 45.6699C9.37768 45.6703 9.37846 45.6707 9.37906 45.671C9.37936 45.6711 9.37961 45.6713 9.37982 45.6714C9.37992 45.6714 9.38001 45.6715 9.38009 45.6715C9.38013 45.6715 9.38018 45.6715 9.3802 45.6715C9.38025 45.6716 9.38029 45.6716 9.74738 44.909ZM13.5361 41.3419L9.27516 44.2066L10.2196 45.6114L14.4805 42.7466L13.5361 41.3419ZM16.5246 26.9053C19.2258 27.0468 21.3008 29.3513 21.1592 32.0525L22.8496 32.1411C23.0401 28.5064 20.248 25.4054 16.6132 25.2149L16.5246 26.9053ZM11.3774 31.5399C11.5189 28.8387 13.8234 26.7637 16.5246 26.9053L16.6132 25.2149C12.9785 25.0244 9.87749 27.8166 9.687 31.4513L11.3774 31.5399ZM16.012 36.6871C13.3108 36.5456 11.2358 34.2411 11.3774 31.5399L9.687 31.4513C9.49651 35.0861 12.2886 38.187 15.9234 38.3775L16.012 36.6871ZM21.1592 32.0525C21.0177 34.7537 18.7132 36.8287 16.012 36.6871L15.9234 38.3775C19.5581 38.568 22.6591 35.7759 22.8496 32.1411L21.1592 32.0525Z" fill="#142FBF"/>
<ellipse cx="37.0906" cy="14.2399" rx="7.96557" ry="7.46772" fill="#EAEFEF"/>
<path fill-rule="evenodd" clip-rule="evenodd" d="M34.9183 25.1174L38.3545 25.2975L42.3288 28.6222C42.3288 28.6222 43.1661 28.3201 43.939 27.9391C44.7119 27.5581 45.2804 27.1672 45.2804 27.1672L44.9234 21.9502L46.7972 19.0648L51.2081 17.4519L51.2184 17.3338C51.3252 16.1094 51.3682 15.6164 51.3671 15.1235C51.3664 14.7913 51.3457 14.4591 51.311 13.903C51.3073 13.8438 51.3035 13.7821 51.2995 13.7175L47.1828 11.7021L45.6211 8.63696L46.4417 3.94184L46.4417 3.94182C44.8855 2.87532 44.8855 2.87532 43.2605 2.05113L39.4376 4.62143L36.0024 4.4414L32.2906 1.33634C30.9101 1.93663 30.6478 2.08603 29.1031 2.96667L29.433 7.78844L27.5593 10.6737L22.8682 12.3891C22.6288 13.8515 22.6067 14.2729 22.6412 15.8175L27.1732 18.0363L28.7352 21.102L27.8429 26.207C27.8429 26.207 28.4723 26.7187 29.1809 27.1657C29.8896 27.6127 30.6573 27.9822 30.6573 27.9822L34.9183 25.1174ZM42.9143 15.17C43.0803 12.002 40.6467 9.2993 37.4788 9.13327C34.3108 8.96724 31.6081 11.4008 31.442 14.5688C31.276 17.7367 33.7096 20.4395 36.8775 20.6055C40.0455 20.7715 42.7482 18.338 42.9143 15.17Z" fill="white"/>
<path fill-rule="evenodd" clip-rule="evenodd" d="M34.9183 25.1174L38.3545 25.2975L42.3288 28.6222C42.3288 28.6222 43.1661 28.3201 43.939 27.9391C44.7119 27.5581 45.2804 27.1672 45.2804 27.1672L44.9234 21.9502L46.7972 19.0648L51.2081 17.4519L51.2184 17.3338C51.3252 16.1094 51.3682 15.6164 51.3671 15.1235C51.3664 14.7913 51.3457 14.4591 51.311 13.903C51.3073 13.8438 51.3035 13.7821 51.2995 13.7175L47.1828 11.7021L45.6211 8.63696L46.4417 3.94184L46.4417 3.94182C44.8855 2.87532 44.8855 2.87532 43.2605 2.05113L39.4376 4.62143L36.0024 4.4414L32.2906 1.33634C30.9101 1.93663 30.6478 2.08603 29.1031 2.96667L29.433 7.78844L27.5593 10.6737L22.8682 12.3891C22.6288 13.8515 22.6067 14.2729 22.6412 15.8175L27.1732 18.0363L28.7352 21.102L27.8429 26.207C27.8429 26.207 28.4723 26.7187 29.1809 27.1657C29.8896 27.6127 30.6573 27.9822 30.6573 27.9822L34.9183 25.1174ZM42.9143 15.17C43.0803 12.002 40.6467 9.2993 37.4788 9.13327C34.3108 8.96724 31.6081 11.4008 31.442 14.5688C31.276 17.7367 33.7096 20.4395 36.8775 20.6055C40.0455 20.7715 42.7482 18.338 42.9143 15.17Z" fill="#142FBF" fill-opacity="0.2"/>
<path d="M38.3545 25.2975L38.8975 24.6484L38.6808 24.4671L38.3988 24.4523L38.3545 25.2975ZM34.9183 25.1174L34.9626 24.2722L34.6805 24.2575L34.4461 24.4151L34.9183 25.1174ZM42.3288 28.6222L41.7857 29.2714L42.1587 29.5834L42.616 29.4183L42.3288 28.6222ZM45.2804 27.1672L45.7599 27.8645L46.1577 27.591L46.1247 27.1094L45.2804 27.1672ZM44.9234 21.9502L44.2136 21.4893L44.0597 21.7262L44.079 22.008L44.9234 21.9502ZM46.7972 19.0648L46.5066 18.2699L46.2413 18.3669L46.0874 18.6038L46.7972 19.0648ZM51.2081 17.4519L51.4988 18.2467L52.0045 18.0618L52.0513 17.5254L51.2081 17.4519ZM51.2184 17.3338L52.0616 17.4073L51.2184 17.3338ZM51.3671 15.1235L52.2135 15.1217L52.2135 15.1217L51.3671 15.1235ZM51.311 13.903L52.1557 13.8504L52.1557 13.8503L51.311 13.903ZM51.2995 13.7175L52.1442 13.6651L52.1137 13.1738L51.6716 12.9574L51.2995 13.7175ZM47.1828 11.7021L46.4287 12.0863L46.557 12.338L46.8107 12.4622L47.1828 11.7021ZM45.6211 8.63696L44.7874 8.49124L44.7387 8.7695L44.867 9.02119L45.6211 8.63696ZM46.4417 3.94184L47.2754 4.08755L47.3754 3.51526L46.8774 3.21622L46.4417 3.94184ZM46.4417 3.94182L45.9632 4.63994L45.9842 4.65433L46.0061 4.66743L46.4417 3.94182ZM43.2605 2.05113L43.6434 1.29632L43.2005 1.07168L42.7883 1.34877L43.2605 2.05113ZM39.4376 4.62143L39.3933 5.46661L39.6754 5.4814L39.9098 5.32379L39.4376 4.62143ZM36.0024 4.4414L35.4593 5.09055L35.676 5.2718L35.9581 5.28658L36.0024 4.4414ZM32.2906 1.33634L32.8337 0.687195L32.4326 0.351705L31.9531 0.560201L32.2906 1.33634ZM29.1031 2.96667L28.6839 2.23142L28.2224 2.4945L28.2587 3.02445L29.1031 2.96667ZM29.433 7.78844L30.1428 8.24939L30.2966 8.01248L30.2774 7.73067L29.433 7.78844ZM27.5593 10.6737L27.8499 11.4686L28.1152 11.3716L28.2691 11.1346L27.5593 10.6737ZM22.8682 12.3891L22.5775 11.5942L22.1129 11.7641L22.0329 12.2524L22.8682 12.3891ZM22.6412 15.8175L21.7951 15.8364L21.8066 16.3512L22.269 16.5776L22.6412 15.8175ZM27.1732 18.0363L27.9272 17.652L27.799 17.4003L27.5453 17.2761L27.1732 18.0363ZM28.7352 21.102L29.5689 21.2477L29.6176 20.9694L29.4893 20.7178L28.7352 21.102ZM27.8429 26.207L27.0092 26.0613L26.9237 26.5504L27.309 26.8637L27.8429 26.207ZM30.6573 27.9822L30.2902 28.7448L30.7271 28.9551L31.1295 28.6846L30.6573 27.9822ZM38.3988 24.4523L34.9626 24.2722L34.874 25.9626L38.3102 26.1427L38.3988 24.4523ZM42.8718 27.9731L38.8975 24.6484L37.8114 25.9466L41.7857 29.2714L42.8718 27.9731ZM43.5648 27.18C43.2045 27.3576 42.8234 27.5195 42.528 27.6384C42.3814 27.6975 42.2581 27.745 42.1721 27.7775C42.1292 27.7938 42.0957 27.8062 42.0733 27.8145C42.0621 27.8186 42.0537 27.8217 42.0484 27.8236C42.0457 27.8246 42.0438 27.8253 42.0426 27.8257C42.042 27.8259 42.0417 27.8261 42.0415 27.8261C42.0414 27.8262 42.0414 27.8262 42.0414 27.8262C42.0414 27.8262 42.0414 27.8262 42.0414 27.8262C42.0414 27.8262 42.0415 27.8262 42.0415 27.8261C42.0415 27.8261 42.0416 27.8261 42.3288 28.6222C42.616 29.4183 42.6161 29.4183 42.6161 29.4183C42.6161 29.4183 42.6162 29.4183 42.6162 29.4183C42.6163 29.4182 42.6164 29.4182 42.6165 29.4182C42.6167 29.4181 42.617 29.418 42.6173 29.4179C42.6179 29.4176 42.6188 29.4173 42.6198 29.417C42.6219 29.4162 42.6247 29.4152 42.6284 29.4138C42.6357 29.4112 42.646 29.4074 42.6592 29.4025C42.6857 29.3928 42.7236 29.3787 42.7712 29.3606C42.8664 29.3246 43.0008 29.2728 43.1601 29.2087C43.4766 29.0813 43.9005 28.9017 44.3132 28.6982L43.5648 27.18ZM45.2804 27.1672C44.8008 26.4698 44.8009 26.4698 44.8009 26.4697C44.8009 26.4697 44.801 26.4697 44.801 26.4697C44.8011 26.4696 44.8011 26.4696 44.8012 26.4695C44.8013 26.4695 44.8013 26.4694 44.8014 26.4694C44.8014 26.4694 44.8013 26.4694 44.8011 26.4696C44.8007 26.4699 44.7997 26.4705 44.7983 26.4715C44.7953 26.4736 44.7902 26.477 44.7831 26.4817C44.769 26.4912 44.7468 26.506 44.7174 26.5251C44.6584 26.5636 44.5706 26.6197 44.4594 26.6874C44.2361 26.8233 43.9233 27.0033 43.5648 27.18L44.3132 28.6982C44.7276 28.4939 45.0854 28.2879 45.3397 28.1331C45.4672 28.0555 45.5698 27.9901 45.6415 27.9433C45.6775 27.9199 45.7058 27.9011 45.7257 27.8877C45.7357 27.881 45.7436 27.8757 45.7493 27.8718C45.7522 27.8698 45.7545 27.8682 45.7563 27.867C45.7572 27.8664 45.7579 27.8659 45.7585 27.8655C45.7588 27.8653 45.7591 27.8651 45.7593 27.865C45.7594 27.8649 45.7595 27.8648 45.7596 27.8647C45.7597 27.8647 45.7598 27.8646 45.7598 27.8646C45.7598 27.8646 45.7599 27.8645 45.2804 27.1672ZM44.079 22.008L44.436 27.2249L46.1247 27.1094L45.7678 21.8925L44.079 22.008ZM46.0874 18.6038L44.2136 21.4893L45.6332 22.4112L47.507 19.5257L46.0874 18.6038ZM50.9175 16.657L46.5066 18.2699L47.0879 19.8596L51.4988 18.2467L50.9175 16.657ZM50.3753 17.2602L50.365 17.3783L52.0513 17.5254L52.0616 17.4073L50.3753 17.2602ZM50.5208 15.1253C50.5218 15.5712 50.4835 16.0188 50.3753 17.2602L52.0616 17.4073C52.1669 16.1999 52.2146 15.6616 52.2135 15.1217L50.5208 15.1253ZM50.4663 13.9557C50.5015 14.5198 50.5201 14.824 50.5208 15.1253L52.2135 15.1217C52.2127 14.7586 52.1899 14.3984 52.1557 13.8504L50.4663 13.9557ZM50.4547 13.7699C50.4588 13.8346 50.4626 13.8966 50.4663 13.9557L52.1557 13.8503C52.152 13.7911 52.1482 13.7295 52.1442 13.6651L50.4547 13.7699ZM46.8107 12.4622L50.9273 14.4776L51.6716 12.9574L47.555 10.9419L46.8107 12.4622ZM44.867 9.02119L46.4287 12.0863L47.9369 11.3178L46.3752 8.25273L44.867 9.02119ZM45.608 3.79612L44.7874 8.49124L46.4548 8.78268L47.2754 4.08755L45.608 3.79612ZM46.0061 4.66743L46.0061 4.66745L46.8774 3.21622L46.8773 3.21621L46.0061 4.66743ZM42.8777 2.80593C44.4685 3.61276 44.4366 3.59367 45.9632 4.63994L46.9201 3.2437C45.3345 2.15697 45.3026 2.13787 43.6434 1.29632L42.8777 2.80593ZM39.9098 5.32379L43.7328 2.75348L42.7883 1.34877L38.9654 3.91907L39.9098 5.32379ZM35.9581 5.28658L39.3933 5.46661L39.4819 3.77625L36.0467 3.59622L35.9581 5.28658ZM31.7476 1.98549L35.4593 5.09055L36.5454 3.79225L32.8337 0.687195L31.7476 1.98549ZM29.5222 3.70193C31.0538 2.82882 31.2867 2.69577 32.6281 2.11249L31.9531 0.560201C30.5335 1.17749 30.2419 1.34323 28.6839 2.23142L29.5222 3.70193ZM30.2774 7.73067L29.9474 2.9089L28.2587 3.02445L28.5886 7.84621L30.2774 7.73067ZM28.2691 11.1346L30.1428 8.24939L28.7232 7.32749L26.8495 10.2127L28.2691 11.1346ZM23.1588 13.1839L27.8499 11.4686L27.2686 9.87883L22.5775 11.5942L23.1588 13.1839ZM23.4873 15.7986C23.4539 14.2999 23.4734 13.931 23.7034 12.5258L22.0329 12.2524C21.7842 13.772 21.7595 14.246 21.7951 15.8364L23.4873 15.7986ZM27.5453 17.2761L23.0133 15.0573L22.269 16.5776L26.801 18.7964L27.5453 17.2761ZM29.4893 20.7178L27.9272 17.652L26.4191 18.4205L27.9811 21.4862L29.4893 20.7178ZM28.6766 26.3527L29.5689 21.2477L27.9015 20.9563L27.0092 26.0613L28.6766 26.3527ZM29.6325 26.4498C29.3035 26.2423 28.9883 26.0167 28.7529 25.8408C28.6359 25.7534 28.5403 25.6795 28.4746 25.628C28.4418 25.6022 28.4165 25.5821 28.3999 25.5688C28.3915 25.5621 28.3854 25.5572 28.3815 25.554C28.3795 25.5525 28.3782 25.5514 28.3774 25.5507C28.377 25.5504 28.3768 25.5502 28.3767 25.5502C28.3766 25.5501 28.3766 25.5501 28.3767 25.5501C28.3767 25.5502 28.3767 25.5502 28.3767 25.5502C28.3768 25.5502 28.3768 25.5502 28.3768 25.5502C28.3768 25.5503 28.3769 25.5503 27.8429 26.207C27.309 26.8637 27.3091 26.8637 27.3091 26.8637C27.3091 26.8637 27.3092 26.8638 27.3092 26.8638C27.3093 26.8639 27.3094 26.8639 27.3095 26.864C27.3096 26.8642 27.3099 26.8643 27.3101 26.8645C27.3106 26.865 27.3113 26.8655 27.3121 26.8662C27.3138 26.8675 27.316 26.8693 27.3189 26.8716C27.3246 26.8762 27.3326 26.8827 27.3429 26.8909C27.3634 26.9073 27.3928 26.9307 27.4301 26.9599C27.5045 27.0183 27.6105 27.1002 27.7395 27.1966C27.9959 27.3882 28.3497 27.642 28.7294 27.8815L29.6325 26.4498ZM30.6573 27.9822C31.0244 27.2197 31.0244 27.2197 31.0245 27.2197C31.0245 27.2197 31.0245 27.2197 31.0245 27.2197C31.0245 27.2197 31.0246 27.2197 31.0246 27.2197C31.0246 27.2198 31.0246 27.2197 31.0245 27.2197C31.0243 27.2196 31.024 27.2195 31.0235 27.2192C31.0225 27.2187 31.0208 27.2179 31.0183 27.2167C31.0135 27.2144 31.0059 27.2107 30.9957 27.2057C30.9753 27.1957 30.9448 27.1806 30.9055 27.1609C30.827 27.1216 30.7144 27.0642 30.5803 26.9933C30.3103 26.8506 29.9618 26.6576 29.6325 26.4498L28.7294 27.8815C29.1087 28.1208 29.4984 28.336 29.7894 28.4898C29.9358 28.5672 30.0594 28.6302 30.147 28.6741C30.1908 28.6961 30.2258 28.7133 30.2501 28.7253C30.2623 28.7313 30.2719 28.736 30.2787 28.7392C30.282 28.7409 30.2847 28.7422 30.2866 28.7431C30.2876 28.7436 30.2884 28.7439 30.289 28.7442C30.2893 28.7444 30.2895 28.7445 30.2897 28.7446C30.2898 28.7446 30.2899 28.7447 30.29 28.7447C30.29 28.7448 30.2901 28.7448 30.2901 28.7448C30.2902 28.7448 30.2902 28.7448 30.6573 27.9822ZM34.4461 24.4151L30.1851 27.2799L31.1295 28.6846L35.3905 25.8198L34.4461 24.4151ZM37.4345 9.97845C40.1357 10.12 42.2106 12.4245 42.0691 15.1257L43.7594 15.2143C43.9499 11.5795 41.1578 8.47858 37.5231 8.28809L37.4345 9.97845ZM32.2872 14.6131C32.4288 11.9119 34.7333 9.83689 37.4345 9.97845L37.5231 8.28809C33.8883 8.0976 30.7873 10.8897 30.5969 14.5245L32.2872 14.6131ZM36.9218 19.7603C34.2206 19.6188 32.1457 17.3142 32.2872 14.6131L30.5969 14.5245C30.4064 18.1592 33.1985 21.2602 36.8332 21.4507L36.9218 19.7603ZM42.0691 15.1257C41.9275 17.8269 39.623 19.9019 36.9218 19.7603L36.8332 21.4507C40.468 21.6412 43.569 18.849 43.7594 15.2143L42.0691 15.1257Z" fill="#142FBF"/>
<g clip-path="url(#clip0_1243_74)">
<path d="M22.686 30.3371C22.686 27.5142 24.9744 25.2258 27.7973 25.2258L46.3836 25.2258C49.2065 25.2258 51.4948 27.5142 51.4948 30.3371V48.9234C51.4948 50.4631 50.2466 51.7113 48.7069 51.7113H25.474C23.9342 51.7113 22.686 50.4631 22.686 48.9234V30.3371Z" fill="white"/>
<path d="M27.7971 46.0737V43.7504H32.4437V46.0737H27.7971ZM30.1204 32.1339C31.3547 32.1339 32.4437 33.223 32.4437 34.4572C32.4437 35.7641 31.3547 36.7805 30.1204 36.7805C28.8136 36.7805 27.7971 35.7641 27.7971 34.4572C27.7971 33.223 28.8136 32.1339 30.1204 32.1339ZM44.0601 32.1339C45.2944 32.1339 46.3834 33.223 46.3834 34.4572C46.3834 35.7641 45.2944 36.7805 44.0601 36.7805C42.7533 36.7805 41.7369 35.7641 41.7369 34.4572C41.7369 33.223 42.7533 32.1339 44.0601 32.1339ZM55.6766 32.1339C56.9108 32.1339 57.9999 33.223 57.9999 34.4572V43.7504C57.9999 45.0572 56.9108 46.0737 55.6766 46.0737H53.3533V48.397C53.3533 51.0107 51.2478 53.0436 48.7067 53.0436H25.4738C22.8601 53.0436 20.8272 51.0107 20.8272 48.397V46.0737H18.504C17.1971 46.0737 16.1807 45.0572 16.1807 43.7504V34.4572C16.1807 33.223 17.1971 32.1339 18.504 32.1339H20.8272V29.8107C20.8272 25.9627 23.9492 22.8408 27.7971 22.8408H35.9286V17.0326C35.9286 16.4517 36.4368 15.8709 37.0903 15.8709C37.6711 15.8709 38.2519 16.4517 38.2519 17.0326V22.8408H46.3834C50.2314 22.8408 53.3533 25.9627 53.3533 29.8107V32.1339H55.6766ZM20.8272 43.7504V34.4572H18.504V43.7504H20.8272ZM51.03 48.397V29.8107C51.03 27.2696 48.9245 25.1641 46.3834 25.1641H27.7971C25.1834 25.1641 23.1505 27.2696 23.1505 29.8107V48.397C23.1505 49.7038 24.167 50.7203 25.4738 50.7203H48.7067C49.941 50.7203 51.03 49.7038 51.03 48.397ZM55.6766 43.7504V34.4572H53.3533V43.7504H55.6766ZM41.7369 46.0737V43.7504H46.3834V46.0737H41.7369ZM34.767 46.0737V43.7504H39.4136V46.0737H34.767Z" fill="#142FBF"/>
<path d="M27.7971 46.0737H27.3988V46.472H27.7971V46.0737ZM27.7971 43.7504V43.3521H27.3988V43.7504H27.7971ZM32.4437 43.7504H32.842V43.3521H32.4437V43.7504ZM32.4437 46.0737V46.472H32.842V46.0737H32.4437ZM53.3533 46.0737V45.6754H52.955V46.0737H53.3533ZM20.8272 46.0737H21.2255V45.6754H20.8272V46.0737ZM20.8272 32.1339V32.5322H21.2255V32.1339H20.8272ZM35.9286 22.8408V23.2391H36.3269V22.8408H35.9286ZM38.2519 22.8408H37.8536V23.2391H38.2519V22.8408ZM53.3533 32.1339H52.955V32.5322H53.3533V32.1339ZM20.8272 43.7504V44.1487H21.2255V43.7504H20.8272ZM20.8272 34.4572H21.2255V34.059H20.8272V34.4572ZM18.504 34.4572V34.059H18.1057V34.4572H18.504ZM18.504 43.7504H18.1057V44.1487H18.504V43.7504ZM55.6766 43.7504V44.1487H56.0749V43.7504H55.6766ZM55.6766 34.4572H56.0749V34.059H55.6766V34.4572ZM53.3533 34.4572V34.059H52.955V34.4572H53.3533ZM53.3533 43.7504H52.955V44.1487H53.3533V43.7504ZM41.7369 46.0737H41.3386V46.472H41.7369V46.0737ZM41.7369 43.7504V43.3521H41.3386V43.7504H41.7369ZM46.3834 43.7504H46.7817V43.3521H46.3834V43.7504ZM46.3834 46.0737V46.472H46.7817V46.0737H46.3834ZM34.767 46.0737H34.3687V46.472H34.767V46.0737ZM34.767 43.7504V43.3521H34.3687V43.7504H34.767ZM39.4136 43.7504H39.8118V43.3521H39.4136V43.7504ZM39.4136 46.0737V46.472H39.8118V46.0737H39.4136ZM28.1954 46.0737V43.7504H27.3988V46.0737H28.1954ZM27.7971 44.1487H32.4437V43.3521H27.7971V44.1487ZM32.0454 43.7504V46.0737H32.842V43.7504H32.0454ZM32.4437 45.6754H27.7971V46.472H32.4437V45.6754ZM30.1204 32.5322C31.1347 32.5322 32.0454 33.4429 32.0454 34.4572H32.842C32.842 33.003 31.5746 31.7357 30.1204 31.7357V32.5322ZM32.0454 34.4572C32.0454 35.5361 31.1428 36.3822 30.1204 36.3822V37.1788C31.5665 37.1788 32.842 35.9921 32.842 34.4572H32.0454ZM30.1204 36.3822C29.0335 36.3822 28.1954 35.5441 28.1954 34.4572H27.3988C27.3988 35.984 28.5936 37.1788 30.1204 37.1788V36.3822ZM28.1954 34.4572C28.1954 33.4348 29.0415 32.5322 30.1204 32.5322V31.7357C28.5856 31.7357 27.3988 33.0111 27.3988 34.4572H28.1954ZM44.0601 32.5322C45.0744 32.5322 45.9852 33.4429 45.9852 34.4572H46.7817C46.7817 33.003 45.5144 31.7357 44.0601 31.7357V32.5322ZM45.9852 34.4572C45.9852 35.5361 45.0825 36.3822 44.0601 36.3822V37.1788C45.5062 37.1788 46.7817 35.9921 46.7817 34.4572H45.9852ZM44.0601 36.3822C42.9733 36.3822 42.1351 35.5441 42.1351 34.4572H41.3386C41.3386 35.984 42.5333 37.1788 44.0601 37.1788V36.3822ZM42.1351 34.4572C42.1351 33.4348 42.9813 32.5322 44.0601 32.5322V31.7357C42.5253 31.7357 41.3386 33.0111 41.3386 34.4572H42.1351ZM55.6766 32.5322C56.6909 32.5322 57.6016 33.4429 57.6016 34.4572H58.3982C58.3982 33.003 57.1308 31.7357 55.6766 31.7357V32.5322ZM57.6016 34.4572V43.7504H58.3982V34.4572H57.6016ZM57.6016 43.7504C57.6016 44.8292 56.699 45.6754 55.6766 45.6754V46.472C57.1227 46.472 58.3982 45.2852 58.3982 43.7504H57.6016ZM55.6766 45.6754H53.3533V46.472H55.6766V45.6754ZM52.955 46.0737V48.397H53.7516V46.0737H52.955ZM52.955 48.397C52.955 50.7867 51.0319 52.6453 48.7067 52.6453V53.4418C51.4637 53.4418 53.7516 51.2347 53.7516 48.397H52.955ZM48.7067 52.6453H25.4738V53.4418H48.7067V52.6453ZM25.4738 52.6453C23.0801 52.6453 21.2255 50.7907 21.2255 48.397H20.429C20.429 51.2306 22.6402 53.4418 25.4738 53.4418V52.6453ZM21.2255 48.397V46.0737H20.429V48.397H21.2255ZM20.8272 45.6754H18.504V46.472H20.8272V45.6754ZM18.504 45.6754C17.4171 45.6754 16.5789 44.8373 16.5789 43.7504H15.7824C15.7824 45.2772 16.9771 46.472 18.504 46.472V45.6754ZM16.5789 43.7504V34.4572H15.7824V43.7504H16.5789ZM16.5789 34.4572C16.5789 33.4348 17.4251 32.5322 18.504 32.5322V31.7357C16.9691 31.7357 15.7824 33.0111 15.7824 34.4572H16.5789ZM18.504 32.5322H20.8272V31.7357H18.504V32.5322ZM21.2255 32.1339V29.8107H20.429V32.1339H21.2255ZM21.2255 29.8107C21.2255 26.1827 24.1691 23.2391 27.7971 23.2391V22.4425C23.7292 22.4425 20.429 25.7427 20.429 29.8107H21.2255ZM27.7971 23.2391H35.9286V22.4425H27.7971V23.2391ZM36.3269 22.8408V17.0326H35.5304V22.8408H36.3269ZM36.3269 17.0326C36.3269 16.6556 36.6726 16.2692 37.0903 16.2692V15.4726C36.2011 15.4726 35.5304 16.2479 35.5304 17.0326H36.3269ZM37.0903 16.2692C37.2512 16.2692 37.4454 16.3536 37.6073 16.5156C37.7692 16.6775 37.8536 16.8717 37.8536 17.0326H38.6502C38.6502 16.6126 38.4442 16.226 38.1705 15.9523C37.8968 15.6786 37.5102 15.4726 37.0903 15.4726V16.2692ZM37.8536 17.0326V22.8408H38.6502V17.0326H37.8536ZM38.2519 23.2391H46.3834V22.4425H38.2519V23.2391ZM46.3834 23.2391C50.0114 23.2391 52.955 26.1827 52.955 29.8107H53.7516C53.7516 25.7427 50.4513 22.4425 46.3834 22.4425V23.2391ZM52.955 29.8107V32.1339H53.7516V29.8107H52.955ZM53.3533 32.5322H55.6766V31.7357H53.3533V32.5322ZM21.2255 43.7504V34.4572H20.429V43.7504H21.2255ZM20.8272 34.059H18.504V34.8555H20.8272V34.059ZM18.1057 34.4572V43.7504H18.9022V34.4572H18.1057ZM18.504 44.1487H20.8272V43.3521H18.504V44.1487ZM51.4283 48.397V29.8107H50.6317V48.397H51.4283ZM51.4283 29.8107C51.4283 27.0496 49.1445 24.7658 46.3834 24.7658V25.5624C48.7046 25.5624 50.6317 27.4895 50.6317 29.8107H51.4283ZM46.3834 24.7658H27.7971V25.5624H46.3834V24.7658ZM27.7971 24.7658C24.9594 24.7658 22.7523 27.0537 22.7523 29.8107H23.5488C23.5488 27.4854 25.4074 25.5624 27.7971 25.5624V24.7658ZM22.7523 29.8107V48.397H23.5488V29.8107H22.7523ZM22.7523 48.397C22.7523 49.9238 23.947 51.1185 25.4738 51.1185V50.322C24.3869 50.322 23.5488 49.4839 23.5488 48.397H22.7523ZM25.4738 51.1185H48.7067V50.322H25.4738V51.1185ZM48.7067 51.1185C50.1528 51.1185 51.4283 49.9318 51.4283 48.397H50.6317C50.6317 49.4758 49.7291 50.322 48.7067 50.322V51.1185ZM56.0749 43.7504V34.4572H55.2783V43.7504H56.0749ZM55.6766 34.059H53.3533V34.8555H55.6766V34.059ZM52.955 34.4572V43.7504H53.7516V34.4572H52.955ZM53.3533 44.1487H55.6766V43.3521H53.3533V44.1487ZM42.1351 46.0737V43.7504H41.3386V46.0737H42.1351ZM41.7369 44.1487H46.3834V43.3521H41.7369V44.1487ZM45.9852 43.7504V46.0737H46.7817V43.7504H45.9852ZM46.3834 45.6754H41.7369V46.472H46.3834V45.6754ZM35.1653 46.0737V43.7504H34.3687V46.0737H35.1653ZM34.767 44.1487H39.4136V43.3521H34.767V44.1487ZM39.0153 43.7504V46.0737H39.8118V43.7504H39.0153ZM39.4136 45.6754H34.767V46.472H39.4136V45.6754Z" fill="#EAEFEF"/>
<path d="M22.686 30.3371C22.686 27.5142 24.9744 25.2258 27.7973 25.2258L46.3836 25.2258C49.2065 25.2258 51.4948 27.5142 51.4948 30.3371V49.2886C51.4948 50.8283 50.2466 52.0766 48.7069 52.0766H25.474C23.9342 52.0766 22.686 50.8284 22.686 49.2886V30.3371Z" fill="#BDDE9C" style="mix-blend-mode:darken"/>
<rect x="18.1724" y="35.647" width="2.98709" height="8.96126" fill="#EAEFEF"/>
</g>
<defs>
<clipPath id="clip0_1243_74">
<rect width="41.8192" height="37.1726" fill="white" transform="translate(16.1807 16.397)"/>
</clipPath>
</defs>
</svg>